# xmcd CD database file
#
# Track frame offsets:
#	150
#	11720
#	27115
#	45855
#	58176
#	78544
#	91346
#	103095
#	119607
#	134024
#	149606
#	168627
#
# Disc length: 2431 seconds
#
# Revision: 0
# Processed by: cddbd v1.5.1PL2 Copyright (c) Steve Scherf et al.
# Submitted via: CDex 1.70beta1
#
DISCID=a9097d0c
DTITLE=Chooka Williams - Fern Haven
DYEAR=2006
DGENRE=Country
TTITLE0=My Akubra
TTITLE1=Maggie
TTITLE2=Vietnam Sunrise
TTITLE3=Always A Fire In The Kitchen - You Are My Sunshine
TTITLE4=Nobody"s Child
TTITLE5=Blue Eyes Crying In The Rain
TTITLE6=Only One Reason
TTITLE7=Medals
TTITLE8=Jodie
TTITLE9=Don't Call Us Cowboys
TTITLE10=For The Good Times
TTITLE11=Grandpa's Piano
EXTD=YEAR: 2006
EXTT0=
EXTT1=
EXTT2=
EXTT3=
EXTT4=
EXTT5=
EXTT6=
EXTT7=
EXTT8=
EXTT9=
EXTT10=
EXTT11=
PLAYORDER=
